<svg width="57" height="57" viewBox="0 0 57 57" fill="none" xmlns="http://www.w3.org/2000/svg">
<g filter="url(#filter0_d_101_188)">
<rect x="2" width="49" height="49" rx="7" fill="white"/>
</g>
<path d="M15.239 36.498C15.833 36.678 16.13 37.062 16.13 37.65C16.13 38.082 15.968 38.415 15.644 38.649C15.32 38.883 14.84 39 14.204 39H11.756V34.194H14.105C14.693 34.194 15.152 34.302 15.482 34.518C15.812 34.734 15.977 35.04 15.977 35.436C15.977 35.682 15.911 35.895 15.779 36.075C15.653 36.255 15.473 36.396 15.239 36.498ZM12.827 36.201H14.006C14.588 36.201 14.879 36 14.879 35.598C14.879 35.208 14.588 35.013 14.006 35.013H12.827V36.201ZM14.114 38.181C14.732 38.181 15.041 37.98 15.041 37.578C15.041 37.368 14.969 37.212 14.825 37.11C14.681 37.002 14.456 36.948 14.15 36.948H12.827V38.181H14.114ZM20.1903 39.063C19.7043 39.063 19.2663 38.958 18.8763 38.748C18.4863 38.538 18.1803 38.247 17.9583 37.875C17.7423 37.497 17.6343 37.071 17.6343 36.597C17.6343 36.123 17.7423 35.7 17.9583 35.328C18.1803 34.956 18.4863 34.665 18.8763 34.455C19.2663 34.245 19.7043 34.14 20.1903 34.14C20.6823 34.14 21.1233 34.245 21.5133 34.455C21.9033 34.665 22.2063 34.956 22.4223 35.328C22.6443 35.7 22.7553 36.123 22.7553 36.597C22.7553 37.071 22.6443 37.497 22.4223 37.875C22.2063 38.247 21.9033 38.538 21.5133 38.748C21.1233 38.958 20.6823 39.063 20.1903 39.063ZM20.1903 38.1C20.6043 38.1 20.9463 37.962 21.2163 37.686C21.4863 37.41 21.6213 37.047 21.6213 36.597C21.6213 36.147 21.4863 35.784 21.2163 35.508C20.9463 35.232 20.6043 35.094 20.1903 35.094C19.7763 35.094 19.4343 35.232 19.1643 35.508C18.9003 35.784 18.7683 36.147 18.7683 36.597C18.7683 37.047 18.9003 37.41 19.1643 37.686C19.4343 37.962 19.7763 38.1 20.1903 38.1ZM24.5866 34.194H25.7116V37.362L28.3666 34.194H29.3926V39H28.2676V35.832L25.6216 39H24.5866V34.194ZM26.9176 33.627C26.4316 33.627 26.0596 33.516 25.8016 33.294C25.5496 33.066 25.4206 32.736 25.4146 32.304H26.1616C26.1676 32.52 26.2336 32.691 26.3596 32.817C26.4916 32.943 26.6746 33.006 26.9086 33.006C27.1366 33.006 27.3166 32.943 27.4486 32.817C27.5866 32.691 27.6586 32.52 27.6646 32.304H28.4296C28.4236 32.736 28.2916 33.066 28.0336 33.294C27.7756 33.516 27.4036 33.627 26.9176 33.627ZM35.433 35.148H33.75V39H32.625V35.148H30.933V34.194H35.433V35.148ZM36.969 34.194H38.094V37.362L40.749 34.194H41.775V39H40.65V35.832L38.004 39H36.969V34.194Z" fill="black"/>
<path d="M30.71 20.71C31.6904 19.9387 32.406 18.8809 32.7572 17.6839C33.1085 16.487 33.0779 15.2103 32.6698 14.0315C32.2617 12.8527 31.4963 11.8304 30.4801 11.1069C29.4639 10.3833 28.2474 9.99451 27 9.99451C25.7525 9.99451 24.5361 10.3833 23.5199 11.1069C22.5037 11.8304 21.7383 12.8527 21.3302 14.0315C20.9221 15.2103 20.8915 16.487 21.2428 17.6839C21.594 18.8809 22.3096 19.9387 23.29 20.71C21.6101 21.383 20.1443 22.4994 19.0489 23.9399C17.9535 25.3805 17.2696 27.0913 17.07 28.89C17.0556 29.0213 17.0671 29.1542 17.104 29.2811C17.1409 29.4079 17.2025 29.5263 17.2851 29.6293C17.452 29.8375 17.6948 29.9708 17.96 30C18.2252 30.0292 18.4912 29.9518 18.6993 29.7849C18.9075 29.618 19.0408 29.3752 19.07 29.11C19.2896 27.1552 20.2217 25.3498 21.6882 24.0388C23.1547 22.7278 25.0529 22.003 27.02 22.003C28.9871 22.003 30.8852 22.7278 32.3518 24.0388C33.8183 25.3498 34.7504 27.1552 34.97 29.11C34.9972 29.3557 35.1144 29.5827 35.2991 29.747C35.4838 29.9114 35.7228 30.0015 35.97 30H36.08C36.3421 29.9698 36.5817 29.8373 36.7466 29.6313C36.9114 29.4252 36.9881 29.1624 36.96 28.9C36.7595 27.0962 36.0719 25.381 34.9708 23.9382C33.8698 22.4954 32.3969 21.3795 30.71 20.71ZM27 20C26.2089 20 25.4355 19.7654 24.7777 19.3259C24.1199 18.8864 23.6072 18.2616 23.3045 17.5307C23.0017 16.7998 22.9225 15.9956 23.0769 15.2196C23.2312 14.4437 23.6122 13.731 24.1716 13.1716C24.731 12.6122 25.4437 12.2312 26.2196 12.0769C26.9956 11.9225 27.7998 12.0017 28.5307 12.3045C29.2616 12.6072 29.8863 13.1199 30.3259 13.7777C30.7654 14.4355 31 15.2089 31 16C31 17.0609 30.5786 18.0783 29.8284 18.8284C29.0783 19.5786 28.0609 20 27 20Z" fill="black"/>
<defs>
<filter id="filter0_d_101_188" x="0" y="0" width="57" height="57" filterUnits="userSpaceOnUse" color-interpolation-filters="sRGB">
<feFlood flood-opacity="0" result="BackgroundImageFix"/>
<feColorMatrix in="SourceAlpha" type="matrix" values="0 0 0 0 0 0 0 0 0 0 0 0 0 0 0 0 0 0 127 0" result="hardAlpha"/>
<feOffset dx="2" dy="4"/>
<feGaussianBlur stdDeviation="2"/>
<feComposite in2="hardAlpha" operator="out"/>
<feColorMatrix type="matrix" values="0 0 0 0 0 0 0 0 0 0 0 0 0 0 0 0 0 0 0.25 0"/>
<feBlend mode="normal" in2="BackgroundImageFix" result="effect1_dropShadow_101_188"/>
<feBlend mode="normal" in="SourceGraphic" in2="effect1_dropShadow_101_188" result="shape"/>
</filter>
</defs>
</svg>
